<?xml version="1.0" encoding="UTF-8"?>
<svg width="400" height="400" viewBox="0 0 400 400" fill="none" xmlns="http://www.w3.org/2000/svg">
  <!-- Background elements -->
  <circle cx="200" cy="200" r="180" fill="#F5F7FF" />
  <circle cx="200" cy="200" r="150" fill="#E8EEFF" />
  
  <!-- Connection lines -->
  <path d="M110 165L170 145M230 145L290 165M170 255L110 235M230 255L290 235M200 125L200 85" stroke="#6366F1" stroke-width="3" stroke-dasharray="6 4" />
  
  <!-- Central node -->
  <circle cx="200" cy="200" r="50" fill="#6366F1" />
  <circle cx="200" cy="200" r="45" fill="white" />
  <circle cx="200" cy="200" r="40" fill="#6366F1" opacity="0.9" />
  <path d="M180 190L195 205L220 180" stroke="white" stroke-width="5" stroke-linecap="round" stroke-linejoin="round" />
  
  <!-- Surrounding nodes -->
  <circle cx="110" cy="165" r="25" fill="#4F46E5" />
  <circle cx="290" cy="165" r="25" fill="#4F46E5" />
  <circle cx="110" cy="235" r="25" fill="#4F46E5" />
  <circle cx="290" cy="235" r="25" fill="#4F46E5" />
  <circle cx="200" cy="85" r="25" fill="#4F46E5" />
  
  <!-- Node icons -->
  <path d="M110 160L115 170L105 170L110 160Z" fill="white" />
  <path d="M110 170L115 160L105 160L110 170Z" fill="white" />
  
  <path d="M290 160L295 170L285 170L290 160Z" fill="white" />
  <path d="M290 170L295 160L285 160L290 170Z" fill="white" />
  
  <rect x="100" y="230" width="20" height="10" rx="2" fill="white" />
  
  <rect x="280" y="230" width="20" height="10" rx="2" fill="white" />
  
  <path d="M195 80H205V90H195V80Z" fill="white" />
  <path d="M195 80H205V90H195V80Z" fill="white" />
  
  <!-- Decorative elements -->
  <circle cx="340" cy="100" r="15" fill="#6366F1" opacity="0.2" />
  <circle cx="60" cy="100" r="10" fill="#6366F1" opacity="0.2" />
  <circle cx="50" cy="300" r="20" fill="#6366F1" opacity="0.2" />
  <circle cx="350" cy="320" r="25" fill="#6366F1" opacity="0.2" />
  
  <!-- Code symbols -->
  <path d="M165 145L155 135L165 125" stroke="#6366F1" stroke-width="2" stroke-linecap="round" stroke-linejoin="round" />
  <path d="M175 125L185 135L175 145" stroke="#6366F1" stroke-width="2" stroke-linecap="round" stroke-linejoin="round" />
  
  <path d="M235 145L225 135L235 125" stroke="#6366F1" stroke-width="2" stroke-linecap="round" stroke-linejoin="round" />
  <path d="M245 125L255 135L245 145" stroke="#6366F1" stroke-width="2" stroke-linecap="round" stroke-linejoin="round" />
</svg> 