<svg id="Layer_1" data-name="Layer 1" xmlns="http://www.w3.org/2000/svg" viewBox="0 0 2000 2000"><defs><style>.cls-1{fill:#fff;}.cls-2{fill:#00c853;}.cls-3{fill:#1b5320;}</style></defs><path class="cls-1" d="M878.93,812.78c-3.8-4.35-10.68-8.7-21.88-4.73-26.32,9.31-52.7,18.83-78.42,28.29-12.57,4.64-24.3,8.93-35.85,13.12l-.11,0c-26.56,10-53.13,19.72-79,29a53.68,53.68,0,0,0-24,16.67,29.33,29.33,0,0,0-4.69,8.2c-2.42,6.49-4.92,13.21-7.56,20.24l-4.09,11.08a10,10,0,0,0-6.45-2.48c-24.54-.32-49.71-.37-74.8-.16-8.66.08-14.73.73-19.13,2-20.11,6.11-33.08,21.46-34.69,41.11-.27,3.51-.45,6.66-.55,9.66a8.42,8.42,0,0,0,0,.87l.12,2.29,0,51.34-.05,33.68c-1.06,16.74,4.13,30.66,15.45,41.38a49.18,49.18,0,0,0,33.13,13.48c3.47,0,7.82,0,12.83,0l0,1.5c-.08,15.74-.11,31.13-.07,45.73,0,16.59,10.45,19.82,16.64,20.26.4,0,.82,0,1.25,0,3.88,0,9.27-1.3,14.83-6.75,19.68-19.29,39.77-39.34,59.72-59.59l1.49-1.19c20.75.2,41.71.24,62.36.1,16.3-.1,30.63-6.06,40.35-16.79,9.55-10.54,14.05-25.11,12.69-41.08l-.09-46V1024a11.34,11.34,0,0,0-1.25-5q1.78-.35,3.12-.69c4.64-1.15,8.65-4.19,11.92-9,9.09-13.54,11.47-18.64,12.23-22a13.49,13.49,0,0,0,.24-4.82c-.07-.56-.16-1.09-.27-1.61,1.5-.17,3-.36,4.51-.57,7-1,12.54-4.68,15.54-10.48,4.26-8.26,8.63-16.54,13-24.58a12.47,12.47,0,0,0,1-9.65,19.33,19.33,0,0,0-.8-2.14c1.54-.42,2.77-.78,3.71-1.08,4-1.23,9.5-4.31,13.51-11.9,10.55-19.92,13.33-25.07,13.75-25.8,3.57-6,3.37-12.55-.42-18,2.38-.69,4.59-1.38,6.52-2.06,6.7-2.33,10.06-6.43,11.67-9.41,2.06-3.74,6.19-11.79,12.27-23.91.45-.9.9-1.74,1.32-2.54C883.14,832.51,888.05,823.2,878.93,812.78Z"/><path class="cls-2" d="M828.14,881.59Q770.44,897,724.31,911q-6.94,2.12-17.85,6c-20,7.1-29.68,22.14-40.4,41.74-4.3,7.11-9.42,16.95-16.44,21.42q-12.32,7.85-15.43,10c-3.88,2.72-9.71,7.1-6.91,12,1.37,2.41,4.53,1.93,6.87,1.39q23.6-5.52,43.57-11.35c3.2-.92,5.35-2.19,6.47-3.79q12-17.28,15.83-23.13A71.94,71.94,0,0,1,714.2,949a34.71,34.71,0,0,1,11.69-4.94q68-15.1,73.61-16.46,14.38-3.51,18.79-4.88,4.74-1.49,7.66-7,12.9-24.34,14-26.24,2.59-4.35-.71-8C836.72,878.68,831.37,880.72,828.14,881.59Z"/><path class="cls-2" d="M621.9,974.75a6.22,6.22,0,0,0,4.19-1.29,176.41,176.41,0,0,1,15.46-10.2,5.45,5.45,0,0,0,1.64-1.5l24.1-34c4.82-6.05,11.31-14,19.14-16.1q70.88-19.26,128.63-36.42c10.21-3.05,27.06-6.89,36.28-10.11a10.66,10.66,0,0,0,6.21-4.78q2.93-5.34,12.1-23.59c3.77-7.5,7-11.34,1.75-17.36-3-3.48-6.66-3.43-11-1.88q-40.08,14.17-78.29,28.25-17.91,6.6-35.9,13.13-39.42,14.82-79.13,29a43.65,43.65,0,0,0-19.62,13.54,19.32,19.32,0,0,0-3.09,5.4q-3.63,9.75-7.55,20.22L622.05,967a17.76,17.76,0,0,0-2.26,4.76A2.34,2.34,0,0,0,621.9,974.75Z"/><path class="cls-2" d="M800.27,933.65c-25.49,7-47.73,13.87-72.4,20.67q-7,1.93-9.17,3.66c-4.27,3.4-7.5,10.89-3.41,15.43,1,1.1,3.24,1.54,6.77,1.31,17.46-1.13,32.08-2.12,49.53-3q7.74-.36,15.93-1.49c3.84-.52,6.5-2.25,8-5.15q6.53-12.68,13.09-24.8a2.43,2.43,0,0,0,.2-1.92Q806.82,931.88,800.27,933.65Z"/><path class="cls-2" d="M767.4,980.25q-45.21,11.32-81.17,21.51c-5.3,1.5-13.57,3.78-10.14,10.62a2.74,2.74,0,0,0,1.15,1.23,9,9,0,0,0,4.74.78c18.63-.51,36.29,0,53.9-2.28q16.13-2.1,22-3.54c2.16-.54,4.18-2.18,6-4.92q9.9-14.76,10.79-18.74a3.65,3.65,0,0,0,.06-1.32C774.17,979.24,771.34,979.27,767.4,980.25Z"/><path class="cls-2" d="M748.37,1024.14a1.41,1.41,0,0,0-1.37-1.4q-7.57-.15-17.92.64c-2.94.22-5.11,1-6.51,2.23a2.35,2.35,0,0,0-.76,1.72l0,53.42a13.55,13.55,0,0,1-6.19,9q-3.37,2-10.84,2-29.47-.15-75.89.1a3.39,3.39,0,0,0-2.35,1L585.24,1134a.3.3,0,0,1-.52-.21q.13-16.79.17-35c0-6.08-3.29-7.27-9-7.24q-27.6.17-38-.17-9.85-.33-13.33-10.29a3.16,3.16,0,0,1-.2-1.06l-.21-12,0-33,0-47c.07-3.77-.49-9.13.87-12.19,1.82-4.06,5.14-6.22,9.94-6.43q1.71-.06,65.27,0a14,14,0,0,0,5-.8,3.36,3.36,0,0,0,1.34-.92c1-1.09,2.2-3.3,3.59-6.61a165,165,0,0,0,6.71-18.87q-37.5-.49-74.57-.16-11.29.11-16.33,1.62c-15.16,4.6-26.28,15.91-27.62,32.31-.24,3.1-.43,6.16-.53,9.21l.14,2.57,0,51.62-.05,34q-1.42,20.78,12.32,33.78a39,39,0,0,0,26.32,10.75q7.59,0,21.9,0a.73.73,0,0,1,.75.72l.14,10.77q-.12,22.89-.07,45.75c0,5.89,1.08,9.86,7.37,10.31,2.74.2,5.51-1.09,8.35-3.87q30.21-29.62,60-59.91l4.21-3.33a2,2,0,0,1,1.28-.43q32.49.35,65,.13c27.29-.17,45.69-19.32,43.1-47.42Z"/><path class="cls-1" d="M861.61,823.89c-16,6.8-32.18,13.21-48.38,19.48-8.1,3.17-16.24,6.2-24.36,9.3l-24.43,9.08-24.51,8.86c-8.2,2.87-16.37,5.83-24.6,8.63-16.42,5.69-32.9,11.23-49.52,16.38,16-6.81,32.17-13.22,48.38-19.49,8.09-3.18,16.23-6.2,24.35-9.3L763,857.76l24.51-8.86c8.2-2.88,16.37-5.83,24.6-8.63C828.51,834.58,845,829,861.61,823.89Z"/><path class="cls-1" d="M830.27,886.73c-9.51,3.51-19.13,6.61-28.78,9.57-4.82,1.52-9.68,2.89-14.52,4.33l-14.58,4.1-14.63,3.88c-4.9,1.22-9.78,2.51-14.7,3.65-9.82,2.36-19.68,4.57-29.66,6.37,9.51-3.51,19.13-6.61,28.78-9.57,4.82-1.52,9.68-2.89,14.52-4.33l14.58-4.1,14.63-3.87c4.9-1.22,9.78-2.5,14.71-3.65C810.44,890.76,820.3,888.54,830.27,886.73Z"/><path class="cls-1" d="M684.13,1007.52c6.48-2.31,13-4.35,19.61-6.3s13.19-3.77,19.82-5.54,13.28-3.41,20-4.94,13.4-3,20.18-4.17c-6.48,2.32-13,4.36-19.62,6.31s-13.19,3.77-19.81,5.54-13.29,3.4-20,4.93S690.91,1006.34,684.13,1007.52Z"/><path class="cls-1" d="M725,959.3c5.78-2.26,11.63-4.25,17.51-6.15s11.8-3.66,17.73-5.38,11.9-3.31,17.9-4.79,12-2.89,18.11-4c-5.77,2.27-11.62,4.26-17.51,6.15S767,948.77,761,950.49s-11.9,3.31-17.9,4.78S731.11,958.17,725,959.3Z"/><path class="cls-3" d="M841.09,1092.26V948.41h31.85v143.85Z"/><path class="cls-3" d="M928,991l2.26,11.09c6.78-9.45,15.82-13.56,27.12-13.56,9.66,0,17.68,2.88,24.87,9.25l-12.33,23.42a26.81,26.81,0,0,0-16.23-5.13c-12.75,0-23.64,8.22-23.64,23.42v52.82H900.48V991Z"/><path class="cls-3" d="M1025.42,963.82c0,22.19-33.7,22.19-33.7,0S1025.42,941.62,1025.42,963.82Zm-31.64,26.71v101.73h29.59V990.53Z"/><path class="cls-3" d="M1137,983.14c-8-8.43-22-12.13-33.29-12.13-14.18,0-25.69,6-25.69,15.82,0,13.16,12.54,15.62,31,17.27,28.36,2.46,55.28,13.36,55.28,46.65,0,32.06-29.59,46-60.62,46.23-24.87.21-50.76-9.45-62.88-29.59l19.11-19.93c11.09,14.18,29.38,20.34,44,20.34,17,0,28.77-6.78,28.77-17,.2-12.13-9.46-17.68-29-19.32-30.42-2.88-57.54-10.48-57.13-44.39.2-28.56,27.33-43.77,56.92-43.77,22.2,0,38.84,4.93,53.64,22.19Z"/><path class="cls-3" d="M1283.12,990.74l-62.27,147.14h-32.26l21-48.7L1167,990.74h33.29l25.28,63.91,24.87-63.91Z"/><path class="cls-3" d="M1369.84,1092.26v-53.64c0-15.62-6.78-23.63-21-23.63-13.77-.21-23,11.71-23,24.87v52.4h-29.19V990.74h26.72l1,13c9-11.72,20.55-15.62,32.88-15.42,22.81,0,42.33,10.69,42.33,50.15v53.84Z"/><path class="cls-3" d="M1512.46,1078.9c-12.12,11.92-26.71,15.62-39.66,15.62-29.59,0-55.49-16.24-55.49-52.82,0-34.11,25.69-53.22,55.28-53.22,14.8,0,26.51,3.29,36.79,14l-16.44,18.7c-6.17-4.72-13-6-19.11-6-14.8,0-26.72,9.66-26.72,26.51,0,16.24,12.33,25.49,26.1,25.49,6.58,0,15.62-2.67,20.55-7.61Z"/></svg>