<svg width="94" height="72" viewBox="0 0 94 72" fill="none" xmlns="http://www.w3.org/2000/svg">
<g clip-path="url(#clip0_1_1939)">
<path d="M59.304 22.6239C58.9473 22.344 58.463 22.2328 58.0623 22.3402L45.853 25.6116L48.0545 5.32572C48.0912 4.9874 47.8955 4.62383 47.5442 4.37773C47.1921 4.13068 46.7402 4.04052 46.3652 4.141L29.8801 8.55817C29.4896 8.6628 29.2472 8.95601 29.2529 9.31609L29.7981 41.17C29.8032 41.4983 30.0169 41.8335 30.3618 42.0557C30.7077 42.2777 31.1344 42.3553 31.4919 42.2595L42.0867 39.4207L44.735 67.0972C44.7808 67.5703 45.2376 68.011 45.8089 68.1332C46.0286 68.1799 46.2396 68.1745 46.4241 68.1251C46.7198 68.0459 46.9458 67.8541 47.0241 67.5857L59.7277 23.6484C59.8273 23.304 59.6611 22.9047 59.304 22.6239Z" fill="url(#paint0_linear_1_1939)"/>
</g>
<defs>
<linearGradient id="paint0_linear_1_1939" x1="30.91" y1="8.2822" x2="46.91" y2="67.9949" gradientUnits="userSpaceOnUse">
<stop stop-color="#00C551" stop-opacity="0.6"/>
<stop offset="1" stop-color="#00C551" stop-opacity="0.04"/>
</linearGradient>
<clipPath id="clip0_1_1939">
<rect width="64" height="64" fill="white" transform="matrix(0.965926 -0.258819 0.5 0.866025 0 16.5645)"/>
</clipPath>
</defs>
</svg>
