<svg width="94" height="72" viewBox="0 0 94 72" fill="none" xmlns="http://www.w3.org/2000/svg">
<g clip-path="url(#clip0_1_1950)">
<path d="M46.1522 36.6141L33.4482 14.6101C33.3179 14.3804 33.0912 14.1864 32.8176 14.0707C32.5441 13.9551 32.2461 13.9272 31.9889 13.9932C12.2269 19.2784 9.82718 42.6084 28.5031 55.9042L46.1522 36.6141Z" fill="url(#paint0_linear_1_1950)"/>
<path d="M75.3599 42.9622L48.0765 37.7547L30.3337 57.1489C49.8554 69.4311 75.3715 62.5461 76.4023 44.0529C76.4111 43.819 76.3071 43.5741 76.1124 43.3703C75.9177 43.1666 75.6477 43.0202 75.3599 42.9622Z" fill="url(#paint1_linear_1_1950)"/>
<path d="M34.3429 10.3627C34.0867 10.4313 33.8937 10.5884 33.8063 10.7993C33.7189 11.0103 33.7443 11.2578 33.877 11.4875L47.377 34.8702C47.4646 35.0224 47.5955 35.16 47.7564 35.2691C47.9173 35.3782 48.1025 35.4549 48.2934 35.4916L77.6261 41.092C77.7692 41.1211 77.9126 41.1268 78.0477 41.1086C78.1828 41.0905 78.307 41.0489 78.4129 40.9863C78.5187 40.9237 78.604 40.8414 78.6639 40.7443C78.7237 40.6472 78.7567 40.5372 78.7611 40.4208C79.8054 21.781 54.7181 4.90314 34.3429 10.3627Z" fill="url(#paint2_linear_1_1950)"/>
</g>
<defs>
<linearGradient id="paint0_linear_1_1950" x1="18.9331" y1="17.4915" x2="29.1773" y2="55.7235" gradientUnits="userSpaceOnUse">
<stop stop-color="#00C551" stop-opacity="0.6"/>
<stop offset="1" stop-color="#00C551" stop-opacity="0.04"/>
</linearGradient>
<linearGradient id="paint1_linear_1_1950" x1="46.2981" y1="38.2313" x2="53.2142" y2="64.0425" gradientUnits="userSpaceOnUse">
<stop stop-color="#00C551" stop-opacity="0.24"/>
<stop offset="1" stop-color="#00C551" stop-opacity="0.04"/>
</linearGradient>
<linearGradient id="paint2_linear_1_1950" x1="47.3421" y1="6.87953" x2="57.9586" y2="46.5008" gradientUnits="userSpaceOnUse">
<stop stop-color="#00C551" stop-opacity="0.6"/>
<stop offset="1" stop-color="#00C551" stop-opacity="0.04"/>
</linearGradient>
<clipPath id="clip0_1_1950">
<rect width="64" height="64" fill="white" transform="matrix(0.965926 -0.258819 0.5 0.866025 0 16.5644)"/>
</clipPath>
</defs>
</svg>
