<svg width="44" height="34" viewBox="0 0 44 34" fill="none" xmlns="http://www.w3.org/2000/svg">
<g clip-path="url(#clip0_1_1845)">
<path d="M26.1804 12.9688C26.3696 13.0473 26.5272 13.1802 26.6185 13.3383C26.7098 13.4965 26.7273 13.6669 26.6673 13.8122L24.9551 17.9458C24.8948 18.091 24.7619 18.1991 24.5855 18.2463C24.4092 18.2936 24.2038 18.2762 24.0145 18.1978L19.3418 16.2631L17.8559 19.848C17.7906 19.9872 17.6568 20.0893 17.4828 20.1328C17.3088 20.1763 17.1082 20.1577 16.9231 20.0811C16.738 20.0044 16.583 19.8756 16.4907 19.7219C16.3984 19.5681 16.3761 19.4013 16.4283 19.2567L18.1405 15.1231C18.2008 14.9779 18.3337 14.8698 18.5101 14.8226C18.6865 14.7753 18.8919 14.7927 19.0812 14.8711L23.7538 16.8058L25.2397 13.2209C25.3 13.0757 25.4329 12.9676 25.6093 12.9203C25.7857 12.8731 25.9911 12.8905 26.1804 12.9688ZM32.8622 13.5028C33.8779 15.2612 34.3664 17.1261 34.2796 18.9146C34.1928 20.7031 33.5339 22.3538 32.3673 23.7045C31.2008 25.0553 29.5668 26.0599 27.6256 26.6197C25.6843 27.1795 23.5026 27.2752 21.2945 26.8976L18.0937 29.0897C17.8673 29.2448 17.5806 29.3353 17.2655 29.3512C16.9505 29.367 16.6197 29.3075 16.3102 29.1792C16.0006 29.051 15.7246 28.8592 15.513 28.6253C15.3015 28.3913 15.1627 28.1245 15.1123 27.8547L14.3991 24.0414C12.7936 22.9041 11.458 21.5209 10.4941 19.9973C9.53014 18.4737 8.9633 16.85 8.83681 15.25C8.71031 13.6499 9.02749 12.1158 9.76417 10.7646C10.5008 9.41334 11.6376 8.2807 13.0876 7.453C14.5377 6.6253 16.2629 6.12441 18.1315 5.98851C20.0002 5.85261 21.9631 6.0853 23.8705 6.66884C25.7778 7.25237 27.5793 8.17134 29.1376 9.35567C30.6959 10.54 31.9698 11.9584 32.8622 13.5028ZM31.5311 13.8594C30.738 12.4865 29.6033 11.2264 28.2147 10.1768C26.8261 9.12707 25.2209 8.3159 23.5233 7.806C21.8257 7.2961 20.0811 7.10114 18.4246 7.23621C16.7681 7.37128 15.2441 7.83276 13.9705 8.58493C12.6968 9.33711 11.7077 10.3598 11.0797 11.5739C10.4516 12.7881 10.2014 14.161 10.3485 15.5867C10.4956 17.0123 11.0359 18.4523 11.9278 19.7953C12.8197 21.1384 14.0391 22.3484 15.4918 23.3318C15.5814 23.3923 15.6578 23.4658 15.716 23.5475C15.7742 23.6291 15.8128 23.7169 15.8292 23.8052L16.5934 27.8931C16.6006 27.9317 16.6204 27.9698 16.6506 28.0032C16.6809 28.0366 16.7203 28.064 16.7645 28.0823C16.8087 28.1007 16.856 28.1092 16.901 28.1069C16.946 28.1046 16.987 28.0917 17.0193 28.0695L20.4469 25.7202C20.5034 25.6819 20.5685 25.6525 20.6399 25.6329C20.7571 25.6022 20.8877 25.5993 21.0192 25.6243C22.9919 26.0056 24.9543 25.9597 26.709 25.4911C28.4636 25.0225 29.9485 24.1478 31.0142 22.9551C32.0799 21.7624 32.6887 20.2937 32.7795 18.697C32.8702 17.1002 32.4397 15.4317 31.5311 13.8594Z" fill="white"/>
</g>
<defs>
<clipPath id="clip0_1_1845">
<rect width="29.3987" height="29.3987" fill="white" transform="matrix(0.965926 -0.258819 0.5 0.866025 0 7.60895)"/>
</clipPath>
</defs>
</svg>
