<svg width="44" height="34" viewBox="0 0 44 34" fill="none" xmlns="http://www.w3.org/2000/svg">
<g clip-path="url(#clip0_1_1847)">
<path d="M35.8527 22.4379L23.0954 14.4114L26.0927 5.6706C26.1279 5.59609 26.1423 5.51326 26.135 5.42739C26.1277 5.34151 26.0989 5.25447 26.0504 5.1718C26.0019 5.08914 25.9347 5.01267 25.8532 4.94726C25.7717 4.88184 25.6776 4.82892 25.5769 4.79186C25.4763 4.75481 25.3712 4.73442 25.2685 4.73201C25.1658 4.7296 25.0676 4.74522 24.9802 4.77786C24.8929 4.81051 24.8183 4.85947 24.7611 4.92163C24.704 4.9838 24.6656 5.05779 24.6483 5.13891L21.756 13.5645L13.3277 8.26184C13.218 8.19279 13.0939 8.14511 12.967 8.12326C12.8402 8.10142 12.7147 8.10613 12.6023 8.13695L7.27792 9.56362C7.15873 9.59562 7.05831 9.65573 6.98717 9.73769C6.91604 9.81964 6.87679 9.92043 6.87353 10.0295C6.87027 10.1386 6.90312 10.252 6.96865 10.3578C7.03418 10.4636 7.12999 10.5579 7.24604 10.631L20.0033 18.6575L17.006 27.3982C16.975 27.5442 17.0143 27.705 17.116 27.849C17.2177 27.9931 17.3745 28.1099 17.5556 28.1766C17.7367 28.2433 17.929 28.2549 18.0946 28.2093C18.2602 28.1636 18.3871 28.064 18.4504 27.9299L21.3428 19.5044L29.7711 24.807C29.8808 24.8761 30.0049 24.9237 30.1317 24.9456C30.2586 24.9674 30.3841 24.9627 30.4964 24.9319L35.8208 23.5052C35.94 23.4732 36.0404 23.4131 36.1116 23.3312C36.1827 23.2492 36.222 23.1484 36.2252 23.0393C36.2285 22.9303 36.1956 22.8169 36.1301 22.7111C36.0646 22.6053 35.9688 22.5109 35.8527 22.4379ZM30.1723 23.6407L9.17937 10.4322L12.9264 9.42817L33.9194 22.6366L30.1723 23.6407Z" fill="white"/>
</g>
<defs>
<clipPath id="clip0_1_1847">
<rect width="29.3987" height="29.3987" fill="white" transform="matrix(0.965926 -0.258819 0.5 0.866025 0 7.60895)"/>
</clipPath>
</defs>
</svg>
