<svg width="44" height="34" viewBox="0 0 44 34" fill="none" xmlns="http://www.w3.org/2000/svg">
<g clip-path="url(#clip0_1_1849)">
<path d="M18.9068 11.9596C17.8976 12.23 17.066 12.7627 16.5171 13.4902C15.9682 14.2177 15.7268 15.1075 15.8232 16.0469C15.9196 16.9863 16.3496 17.9332 17.0589 18.7679C17.7681 19.6026 18.7247 20.2875 19.8077 20.7361C20.8907 21.1847 22.0515 21.3768 23.1432 21.2881C24.2349 21.1994 25.2086 20.8339 25.941 20.2378C26.6735 19.6418 27.1319 18.8419 27.2582 17.9393C27.3845 17.0367 27.1731 16.072 26.6507 15.1672C25.9487 13.9549 24.7393 12.9363 23.2876 12.335C21.8359 11.7337 20.2605 11.5987 18.9068 11.9596ZM23.5004 19.9159C22.7544 20.1157 21.9108 20.1128 21.076 19.9074C20.2413 19.7021 19.453 19.3035 18.8108 18.7621C18.1687 18.2207 17.7014 17.5608 17.4683 16.8659C17.2351 16.171 17.2464 15.4722 17.5008 14.858C17.7553 14.2438 18.2413 13.7417 18.8976 13.4152C19.5539 13.0887 20.3508 12.9524 21.1877 13.0237C22.0247 13.095 22.8639 13.3706 23.5994 13.8156C24.3348 14.2606 24.9335 14.8551 25.3196 15.5239C25.8374 16.4207 25.9366 17.3872 25.5954 18.2109C25.2542 19.0345 24.5006 19.6478 23.5004 19.9159ZM21.0158 4.96356L10.3669 7.81691C8.77974 8.24402 7.58416 9.21831 7.04249 10.526C6.50081 11.8337 6.65729 13.3681 7.47759 14.7924L12.9898 24.3399C13.8137 25.7633 15.2334 26.9591 16.9377 27.665C18.6419 28.3709 20.4914 28.5293 22.0805 28.1053L32.7293 25.252C34.3165 24.8249 35.5121 23.8506 36.0538 22.5429C36.5954 21.2352 36.4389 19.7008 35.6186 18.2765L30.1064 8.72902C29.2826 7.30564 27.8628 6.10981 26.1586 5.40389C24.4543 4.69797 22.6048 4.53961 21.0158 4.96356ZM34.2875 18.6332C34.9271 19.741 35.0497 20.935 34.6283 21.9524C34.2068 22.9699 33.2759 23.7275 32.0403 24.0586L21.3914 26.9119C20.1558 27.243 18.7167 27.1204 17.3908 26.5712C16.0648 26.022 14.9605 25.091 14.3209 23.9832L8.8087 14.4357C8.1691 13.3279 8.04654 12.1339 8.46799 11.1165C8.88943 10.099 9.82035 9.34143 11.056 9.01035L21.7048 6.157C22.9404 5.82592 24.3795 5.94848 25.7055 6.49771C27.0314 7.04695 28.1357 7.97787 28.7753 9.08569L34.2875 18.6332ZM25.4397 9.5201C25.5533 9.7168 25.5992 9.92652 25.5718 10.1227C25.5443 10.3189 25.4447 10.4928 25.2854 10.6224C25.1262 10.752 24.9145 10.8315 24.6772 10.8507C24.4399 10.87 24.1875 10.8283 23.9521 10.7307C23.7167 10.6332 23.5087 10.4843 23.3545 10.3029C23.2003 10.1214 23.1069 9.91556 23.0859 9.71134C23.0649 9.50711 23.1174 9.31369 23.2368 9.15553C23.3561 8.99738 23.5369 8.88158 23.7563 8.8228C24.0504 8.74397 24.3931 8.77315 24.7088 8.90392C25.0245 9.03469 25.2874 9.25634 25.4397 9.5201Z" fill="white"/>
</g>
<defs>
<clipPath id="clip0_1_1849">
<rect width="29.3987" height="29.3987" fill="white" transform="matrix(0.965926 -0.258819 0.5 0.866025 0 7.60894)"/>
</clipPath>
</defs>
</svg>
