<svg width="44" height="34" viewBox="0 0 44 34" fill="none" xmlns="http://www.w3.org/2000/svg">
<g clip-path="url(#clip0_1_1851)">
<path d="M29.1274 16.6431L24.659 16.003C24.5272 15.9843 24.3983 15.9945 24.2853 16.0324C24.1722 16.0704 24.0791 16.1348 24.0153 16.2191L22.876 17.7245C21.7622 17.5562 20.675 17.1059 19.7684 16.4372L20.0289 14.5679C20.0434 14.4631 20.0231 14.3518 19.97 14.245C19.9169 14.1383 19.833 14.0399 19.7265 13.9599L16.1143 11.2529C16.0017 11.1682 15.8682 11.1072 15.7289 11.0769C15.5897 11.0467 15.4503 11.0483 15.3263 11.0817C14.2084 11.3812 13.3661 12.0667 12.9848 12.9872C12.6035 13.9078 12.7144 14.988 13.2931 15.9903C14.6052 18.2571 16.8664 20.1615 19.5805 21.2858C22.2946 22.41 25.2401 22.6622 27.7707 21.9872C28.8887 21.6876 29.7309 21.0022 30.1123 20.0816C30.4936 19.1611 30.3827 18.0808 29.804 17.0785C29.74 16.9676 29.6428 16.8681 29.5233 16.7912C29.4037 16.7143 29.2667 16.663 29.1274 16.6431ZM27.0817 20.7937C24.9041 21.3745 22.3697 21.1574 20.0343 20.19C17.699 19.2227 15.7533 17.5841 14.6242 15.6337C14.264 15.0096 14.1676 14.3391 14.353 13.746C14.5383 13.1528 14.9928 12.677 15.6326 12.4064L18.4908 14.5482L18.2329 16.4065C18.2195 16.5045 18.2365 16.6083 18.2825 16.7088C18.3284 16.8092 18.4018 16.9032 18.4962 16.9825C19.8614 18.1231 21.6181 18.8508 23.39 19.0096C23.5128 19.0203 23.6312 19.0057 23.7347 18.9672C23.8383 18.9286 23.9237 18.8673 23.9835 18.7885L25.1151 17.2921L28.6507 17.7987C28.9117 18.4425 28.8967 19.1003 28.6083 19.6507C28.32 20.2012 27.7777 20.6072 27.0817 20.7937ZM15.6918 6.39021C13.7302 6.9154 12.0661 7.88874 10.8628 9.21475C9.65945 10.5408 8.95826 12.1739 8.82797 13.9539C8.69768 15.7339 9.14278 17.5997 10.1196 19.3682C11.0964 21.1366 12.5714 22.747 14.3998 24.0414L15.1131 27.8547C15.1635 28.1245 15.3022 28.3913 15.5138 28.6252C15.7253 28.8592 16.0014 29.051 16.3109 29.1792C16.6204 29.3074 16.9512 29.367 17.2663 29.3511C17.5813 29.3353 17.8681 29.2448 18.0945 29.0896L21.2952 26.8976C23.2347 27.2286 25.1571 27.1949 26.9161 26.7992C28.675 26.4035 30.224 25.6562 31.4448 24.6142C32.6657 23.5722 33.5262 22.2632 33.9608 20.7868C34.3953 19.3104 34.3924 17.7057 33.9523 16.0951C33.5123 14.4845 32.6466 12.9104 31.4213 11.493C30.196 10.0755 28.6436 8.85212 26.8822 7.91603C25.1209 6.97994 23.1972 6.35589 21.2579 6.09146C19.3186 5.82703 17.4148 5.92921 15.6918 6.39021ZM26.7163 25.4852C24.9616 25.9558 22.9983 26.0034 21.0243 25.6231C20.8929 25.598 20.7622 25.601 20.6451 25.6317C20.5737 25.6513 20.5086 25.6807 20.4521 25.719L17.02 28.0695C16.9877 28.0917 16.9467 28.1046 16.9017 28.1069C16.8567 28.1091 16.8095 28.1006 16.7652 28.0823C16.721 28.064 16.6816 28.0366 16.6514 28.0032C16.6212 27.9698 16.6013 27.9316 16.5941 27.8931L15.8317 23.8082C15.8152 23.7199 15.7766 23.632 15.7185 23.5504C15.6603 23.4688 15.5839 23.3953 15.4943 23.3347C13.4084 21.9243 11.8204 20.0592 10.9769 18.0288C10.1333 15.9985 10.0812 13.9163 10.8286 12.1055C11.5761 10.2946 13.0813 8.85624 15.1108 8.0135C17.1403 7.17077 19.5807 6.9708 22.0532 7.4446C24.5257 7.91841 26.8922 9.03951 28.7855 10.634C30.6788 12.2284 31.9932 14.2071 32.5246 16.2631C33.056 18.319 32.7748 20.3373 31.7246 22.0047C30.6744 23.6722 28.9139 24.8956 26.7163 25.4852Z" fill="white"/>
</g>
<defs>
<clipPath id="clip0_1_1851">
<rect width="29.3987" height="29.3987" fill="white" transform="matrix(0.965926 -0.258819 0.5 0.866025 0 7.60894)"/>
</clipPath>
</defs>
</svg>
