<svg width="84" height="62" viewBox="0 0 84 62" fill="none" xmlns="http://www.w3.org/2000/svg">
<g style="mix-blend-mode:overlay" clip-path="url(#clip0_1_1813)">
<path d="M52.7883 1.98794C51.9805 1.60324 50.7615 1.3287 49.5407 2.20445C46.6706 4.26013 43.807 6.3431 41.0273 8.39527C39.67 9.40021 38.4006 10.3332 37.1483 11.2478L37.1336 11.2518C34.2791 13.3986 31.4039 15.5123 28.5918 17.5483C27.5618 18.2707 26.8516 19.2585 26.5399 20.4019C26.4436 20.7679 26.4235 21.156 26.4804 21.551C26.6059 22.4143 26.7365 23.308 26.8698 24.2438L27.0895 25.7162C26.7427 25.5926 26.3767 25.5692 26.0571 25.6501C22.7592 26.4896 19.3958 27.3839 16.061 28.3064C14.9105 28.6258 14.1452 28.9207 13.6456 29.2301C11.3833 30.6806 10.7126 32.9817 11.8555 35.3911C12.062 35.8208 12.2556 36.2043 12.4495 36.5669C12.4676 36.6021 12.4876 36.6369 12.5097 36.671L12.6839 36.9408L16.2315 43.0854L18.5521 47.1181C19.5673 49.1595 21.222 50.6399 23.4738 51.518C25.2567 52.2139 27.1679 52.3668 28.8278 51.9463C29.291 51.8222 29.8717 51.6666 30.5405 51.4874L30.6441 51.6669C31.7211 53.5536 32.7805 55.3966 33.7947 57.1426C34.9411 59.1281 36.5592 59.1409 37.4159 58.9722C37.4693 58.9579 37.5254 58.9428 37.5828 58.9275C38.1007 58.7887 38.7304 58.4403 39.096 57.5891C40.3902 54.5765 41.6865 51.4583 42.9504 48.3211L43.0671 48.1254C45.8508 47.4071 48.6515 46.6622 51.3984 45.9068C53.5674 45.3118 55.0685 44.0859 55.6245 42.4541C56.1711 40.851 55.765 38.9463 54.4799 37.0836L51.2893 31.5813L51.2887 31.5801C51.1647 31.3728 50.9894 31.1833 50.7763 31.0264C50.9186 30.9561 51.0415 30.8913 51.1451 30.8323C51.685 30.5287 52.0103 30.0214 52.1144 29.3287C52.3922 27.3831 52.3575 26.6876 52.2268 26.2582C52.167 26.056 52.065 25.8577 51.9258 25.6728C51.8777 25.6083 51.8291 25.5481 51.7785 25.4898C51.967 25.4158 52.1541 25.3394 52.3411 25.2602C53.2065 24.8902 53.6917 24.2516 53.6914 23.4501C53.6893 22.3091 53.7005 21.1618 53.7283 20.0433C53.7346 19.8398 53.6907 19.6296 53.5991 19.4251C53.5075 19.2206 53.3701 19.0259 53.195 18.8526C53.1147 18.7734 53.0297 18.6974 52.9403 18.6251C53.1169 18.5197 53.2562 18.4326 53.361 18.3631C53.8099 18.0728 54.3313 17.5074 54.3421 16.4556C54.374 13.6942 54.3892 12.9784 54.3948 12.876C54.4568 12.0302 53.9775 11.2534 53.095 10.7367C53.365 10.569 53.6123 10.4073 53.823 10.2569C54.5564 9.73841 54.7216 9.12753 54.7306 8.71328C54.7472 8.19198 54.7422 7.0808 54.7163 5.41276C54.7142 5.28895 54.7163 5.17232 54.717 5.06155C54.7137 4.19871 54.7258 2.90884 52.7883 1.98794Z" fill="white"/>
<path d="M50.7611 12.0402C46.3361 14.6456 42.3934 17.0569 38.9331 19.2739C38.4131 19.6086 37.757 20.0608 36.9649 20.6305C34.7857 22.1956 34.5327 24.3419 34.4561 27.0711C34.3734 28.0759 34.3698 29.4367 33.7416 30.2228C33.0068 31.1429 32.5506 31.7258 32.3729 31.9715C32.0429 32.4359 31.5673 33.1686 32.2796 33.6549C32.6291 33.8943 33.0177 33.7239 33.2928 33.5755C35.1387 32.5723 36.816 31.6001 38.3246 30.6587C38.6882 30.4341 38.8875 30.2052 38.9264 29.9737C39.1983 28.3088 39.37 27.1973 39.4413 26.6392C39.5372 25.7692 39.7961 24.9413 40.2093 24.1835C40.522 23.7748 40.9353 23.4326 41.4284 23.1741C46.7843 20.3478 49.6806 18.8135 50.1172 18.5712C51.2352 17.9483 51.9589 17.5296 52.2883 17.3151C52.6415 17.0832 52.8211 16.7126 52.8271 16.2033C52.8539 13.9536 52.8724 12.7399 52.8828 12.5621C52.9129 12.1532 52.6971 11.8425 52.2352 11.63C51.7054 11.385 51.1322 11.8205 50.7611 12.0402Z" fill="#00C853"/>
<path d="M29.6679 30.5667C29.8755 30.5239 30.0426 30.4158 30.1381 30.2624C30.5482 29.6456 31.0018 29.0535 31.497 28.4887C31.5566 28.4199 31.5958 28.3388 31.6123 28.2505L32.48 23.3192C32.7054 22.4227 33.0224 21.2391 33.9225 20.7077C39.3431 17.4808 44.2278 14.4942 48.5767 11.7479C49.7289 11.0177 51.7128 9.95541 52.7211 9.24025C53.0168 9.05777 53.1951 8.77383 53.2198 8.44603C53.2345 7.95009 53.2296 6.86472 53.205 5.1899C53.19 4.15742 53.3558 3.58231 52.239 3.0496C51.5981 2.7404 51.113 2.8773 50.6407 3.21804C47.7266 5.30439 44.8937 7.36485 42.1418 9.39943C40.852 10.3531 39.557 11.305 38.2568 12.255C35.4314 14.3774 32.5784 16.4778 29.6977 18.5562C28.8539 19.1423 28.271 19.9464 28.0142 20.8784C27.9507 21.1195 27.9374 21.3751 27.9749 21.6353C28.101 22.4998 28.2307 23.3964 28.3642 24.3253L29.1524 29.6338C29.122 29.8444 29.1312 30.0637 29.1796 30.2843C29.1898 30.3282 29.2116 30.3715 29.2433 30.411C29.275 30.4504 29.3158 30.485 29.3627 30.5121C29.4096 30.5392 29.4614 30.5582 29.5143 30.5677C29.5671 30.5771 29.6196 30.5768 29.6679 30.5667Z" fill="#00C853"/>
<path d="M50.6393 19.2676C47.7203 21.0171 45.2262 22.6349 42.4029 24.3311C41.8688 24.652 41.5451 24.9074 41.4317 25.0972C41.0966 25.6568 41.183 26.6688 42.0427 27.0658C42.2522 27.1617 42.5816 27.1343 43.0369 26.9805C45.2896 26.2207 47.1728 25.5793 49.4414 24.8498C50.1136 24.6365 50.7881 24.3872 51.4649 24.1017C51.9416 23.9021 52.1771 23.5999 52.177 23.1992C52.174 22.0317 52.1852 20.8863 52.2107 19.7628C52.2124 19.7224 52.2039 19.6805 52.1857 19.6397C52.1674 19.599 52.1399 19.5602 52.1047 19.5259C51.6291 19.0563 51.1406 18.9702 50.6393 19.2676Z" fill="#00C853"/>
<path d="M49.4707 26.0206C45.9687 28.0019 42.8524 29.8278 40.1216 31.4984C39.5178 31.8675 38.5714 32.4362 39.5019 33.1321C39.5705 33.1857 39.6539 33.2228 39.7404 33.2382C39.9853 33.2672 40.2226 33.2409 40.427 33.162C42.8787 32.4346 45.2713 31.864 47.4646 30.9612C48.8033 30.409 49.7007 30.0055 50.1567 29.7506C50.4077 29.6087 50.5641 29.3402 50.6177 28.9472C50.8188 27.5334 50.8673 26.6571 50.7631 26.3183C50.7466 26.263 50.7184 26.2087 50.6799 26.1582C50.3046 25.6576 49.9289 25.7624 49.4707 26.0206Z" fill="#00C853"/>
<path d="M49.9632 31.9542C49.9377 31.9105 49.8942 31.8738 49.8421 31.8517C49.7899 31.8295 49.7331 31.8238 49.6836 31.8356C49.003 32.0042 48.2204 32.2434 47.3357 32.5532C46.9585 32.6847 46.7227 32.8556 46.6208 33.0529C46.6041 33.0877 46.597 33.1263 46.6 33.1664C46.603 33.2065 46.616 33.2472 46.6382 33.286L50.3295 39.6795C50.4103 39.9132 50.4339 40.1493 50.3987 40.3728C50.3635 40.5964 50.2703 40.8025 50.1251 40.978C49.9173 41.218 49.481 41.427 48.8162 41.6051C46.1867 42.2959 42.8122 43.2047 38.6926 44.3316C38.5756 44.3649 38.4878 44.438 38.448 44.5353L35.7783 50.9375C35.7759 50.9444 35.7708 50.95 35.7638 50.9537C35.7568 50.9574 35.7482 50.959 35.7391 50.9583C35.73 50.9576 35.7208 50.9546 35.7128 50.9497C35.7049 50.9449 35.6984 50.9383 35.6944 50.931C34.9325 49.5883 34.1339 48.1899 33.2986 46.736C32.8785 46.0083 32.3571 45.9836 31.5969 46.1914C29.1485 46.8631 27.4537 47.3094 26.5126 47.5303C25.6208 47.7388 24.7906 47.4872 24.0221 46.7755C23.9817 46.7394 23.9479 46.699 23.9222 46.6558L23.0649 45.2271L20.7847 41.2775L17.537 35.6524C17.2858 35.1987 16.8407 34.5772 16.8108 34.1624C16.7732 33.6113 17.0671 33.2341 17.6934 33.0372C17.8428 32.9917 20.7471 32.2135 26.4062 30.7026C26.6361 30.6465 26.8435 30.5534 27.0184 30.428C27.0739 30.3866 27.1135 30.3323 27.1337 30.27C27.1919 30.1038 27.1994 29.7964 27.1562 29.3505C27.0807 28.521 26.9444 27.6867 26.748 26.8521C23.3882 27.7072 20.0664 28.5899 16.7826 29.5002C15.783 29.7781 15.0936 30.0375 14.7147 30.2781C13.0088 31.3709 12.3059 33.1223 13.2603 35.133C13.4425 35.5127 13.6285 35.8857 13.8259 36.2543L14.0222 36.5569L17.5891 42.7349L19.9318 46.806C20.7627 48.4979 22.089 49.6986 23.9106 50.4082C25.3271 50.9639 26.8469 51.0872 28.1669 50.7534C28.8423 50.5724 29.8168 50.3113 31.0903 49.9701C31.103 49.9663 31.117 49.9648 31.1315 49.9658C31.1459 49.9667 31.1606 49.9701 31.1745 49.9756C31.1885 49.9811 31.2014 49.9887 31.2127 49.9979C31.224 50.0072 31.2333 50.0179 31.2402 50.0294L32.0031 51.3134C33.0469 53.1426 34.0975 54.9687 35.155 56.7914C35.562 57.4964 35.9805 57.9329 36.8513 57.7618C37.2308 57.6877 37.5115 57.4342 37.6985 56.9999C39.0225 53.9162 40.3124 50.8107 41.5681 47.6836L41.9 47.1344C41.9287 47.087 41.9786 47.0526 42.0412 47.0372C44.9487 46.2904 47.844 45.5206 50.727 44.7278C54.3582 43.7313 55.4911 40.7812 53.2037 37.5108L49.9632 31.9542Z" fill="#00C853"/>
<path d="M51.2428 3.93708C49.5768 5.32323 47.8599 6.66913 46.1306 7.999C45.2684 8.66812 44.3911 9.32191 43.5214 9.98337L40.8877 11.9439L38.2281 13.881C37.3318 14.5178 36.4457 15.1643 35.5405 15.7938C33.7418 17.0621 31.9247 18.3146 30.062 19.5255C31.7272 18.1381 33.4428 16.7926 35.1735 15.4623C36.0337 14.7924 36.9116 14.1398 37.7813 13.4783L40.4197 11.5179L43.0794 9.58082C43.975 8.94283 44.8617 8.29753 45.7669 7.66804C47.5629 6.40044 49.3786 5.14278 51.2428 3.93708Z" fill="white"/>
<path d="M51.4017 12.5791C50.3748 13.3393 49.3048 14.0544 48.2212 14.7539C47.6828 15.1082 47.1287 15.446 46.5821 15.7915L44.9191 16.8037L43.2343 17.7913C42.6645 18.1126 42.1022 18.4416 41.5242 18.754C40.3764 19.3877 39.2129 20.0049 38.0051 20.5773C39.032 19.817 40.102 19.1019 41.1856 18.4025C41.724 18.0481 42.2781 17.7103 42.8247 17.3649L44.4877 16.3527L46.1732 15.3662C46.743 15.0449 47.306 14.7172 47.8846 14.4032C49.0331 13.7707 50.1959 13.1523 51.4017 12.5791Z" fill="white"/>
<path d="M40.2406 32.2629C40.946 31.7546 41.6754 31.2772 42.423 30.8074C43.1706 30.3376 43.9232 29.8844 44.686 29.4355C45.4487 28.9865 46.2231 28.5523 47.0144 28.1289C47.8057 27.7054 48.5959 27.2905 49.4201 26.908C48.7154 27.4174 47.986 27.8948 47.237 28.3649C46.4881 28.8351 45.7368 29.2879 44.9754 29.7366C44.214 30.1852 43.4363 30.6189 42.6463 31.042C41.8563 31.4651 41.0641 31.8791 40.2406 32.2629Z" fill="white"/>
<path d="M42.3631 25.0297C42.9785 24.5525 43.6219 24.1051 44.2755 23.6673C44.9292 23.2296 45.5978 22.8072 46.2706 22.3893C46.9433 21.9713 47.6304 21.5675 48.329 21.1757C49.0277 20.784 49.7312 20.4006 50.4701 20.0492C49.8568 20.5273 49.2133 20.9747 48.5577 21.4116C47.902 21.8485 47.242 22.2671 46.56 22.6876C45.8779 23.1081 45.2001 23.5094 44.5008 23.9C43.8014 24.2905 43.1006 24.6759 42.3631 25.0297Z" fill="white"/>
</g>
<defs>
<clipPath id="clip0_1_1813">
<rect width="58.7098" height="53.8975" fill="white" transform="matrix(0.965926 -0.258819 0.5 0.866025 0 15.1953)"/>
</clipPath>
</defs>
</svg>
