<svg width="148" height="56" viewBox="0 0 148 56" fill="none" xmlns="http://www.w3.org/2000/svg">
<g clip-path="url(#clip0_1_1912)">
<path d="M56.2763 0.973543C55.7307 0.348928 54.7428 -0.275694 53.1346 0.294358C49.3553 1.63118 45.5674 2.99816 41.8742 4.35652C40.0693 5.02277 38.385 5.63877 36.7266 6.24041H36.7108C32.897 7.67631 29.0818 9.072 25.3672 10.4045C24.0192 10.8684 22.8263 11.697 21.921 12.7982C21.6344 13.1517 21.407 13.5493 21.2476 13.9756C20.9001 14.9075 20.5411 15.8724 20.162 16.8818L19.5748 18.4728C19.3182 18.2478 18.9898 18.1216 18.6486 18.1167C15.1249 18.0708 11.5108 18.0636 7.90809 18.0937C6.66461 18.1052 5.79302 18.1986 5.16122 18.3809C2.27363 19.2583 0.411272 21.4624 0.180093 24.2839C0.141323 24.7879 0.115474 25.2402 0.101116 25.671C0.0989628 25.7126 0.0989628 25.7543 0.101116 25.7959L0.118346 26.1247V33.4966L0.111168 38.3327C-0.0410373 40.7364 0.704195 42.7352 2.32963 44.2745C3.61621 45.4938 5.31432 46.1848 7.08676 46.21C7.58501 46.21 8.20963 46.21 8.92902 46.21V46.4254C8.91753 48.6855 8.91322 50.8954 8.91896 52.9918C8.91896 55.374 10.4195 55.8378 11.3083 55.9009C11.3657 55.9009 11.426 55.9009 11.4878 55.9009C12.0449 55.9009 12.8189 55.7143 13.6172 54.9317C16.4431 52.1619 19.3278 49.2829 22.1924 46.3752L22.4063 46.2043C25.3858 46.233 28.3955 46.2388 31.3606 46.2187C33.7011 46.2043 35.7588 45.3485 37.1545 43.8078C38.5257 42.2944 39.1719 40.2023 38.9766 37.9091L38.9637 31.304V31.3026C38.9598 31.0526 38.8983 30.807 38.7842 30.5846C38.9546 30.5511 39.1039 30.5181 39.2322 30.4855C39.8985 30.3204 40.4743 29.8839 40.9438 29.1932C42.249 27.249 42.5908 26.5167 42.6999 26.0343C42.7529 25.8075 42.7646 25.5731 42.7344 25.3422C42.7243 25.2617 42.7114 25.1856 42.6956 25.111C42.911 25.0866 43.1264 25.0593 43.3432 25.0291C44.3483 24.8855 45.1438 24.3571 45.5746 23.5243C46.1863 22.3383 46.8137 21.1493 47.4412 19.9949C47.5565 19.7852 47.6286 19.5546 47.6533 19.3166C47.678 19.0786 47.6547 18.8381 47.5848 18.6092C47.5526 18.5046 47.5143 18.402 47.4699 18.302C47.6911 18.2416 47.8677 18.19 48.0027 18.1469C48.577 17.9703 49.3668 17.528 49.9426 16.4382C51.4574 13.5778 51.8566 12.8384 51.9169 12.7335C52.4295 11.872 52.4008 10.9315 51.8566 10.1489C52.1984 10.0498 52.5157 9.95077 52.7928 9.85313C53.7549 9.51856 54.2373 8.92985 54.4685 8.50195C54.7643 7.96493 55.3573 6.80902 56.2304 5.06872C56.295 4.93949 56.3596 4.81887 56.4199 4.704C56.8808 3.80657 57.5858 2.46975 56.2763 0.973543Z" fill="white"/>
<path d="M48.9841 10.854C43.4607 12.3291 38.491 13.7368 34.0752 15.0769C33.4108 15.2799 32.5565 15.5671 31.5121 15.9385C28.6403 16.958 27.2503 19.1176 25.7111 21.9319C25.0936 22.9528 24.3584 24.3658 23.3504 25.0076C22.1711 25.7591 21.4326 26.2377 21.1349 26.4435C20.5777 26.8341 19.7406 27.463 20.1426 28.1666C20.3394 28.5126 20.7931 28.4437 21.1291 28.3662C23.3883 27.8378 25.4737 27.2945 27.3853 26.7364C27.8448 26.6043 28.1535 26.422 28.3143 26.1922C29.4631 24.5381 30.2207 23.431 30.5874 22.871C31.1446 21.9938 31.831 21.2057 32.6235 20.5334C33.1346 20.1958 33.7037 19.9553 34.302 19.824C40.8114 18.3786 44.3347 17.5907 44.8717 17.4605C46.2482 17.1245 47.1476 16.891 47.5697 16.7598C48.0235 16.6172 48.3901 16.2821 48.6696 15.7547C49.9045 13.4247 50.5746 12.1688 50.6799 11.9869C50.9278 11.5705 50.8938 11.1876 50.5779 10.8382C50.2161 10.4361 49.4479 10.7291 48.9841 10.854Z" fill="#00C853"/>
<path d="M19.3711 24.2308C19.5874 24.2441 19.8013 24.1783 19.9727 24.0455C20.6865 23.5188 21.4275 23.0299 22.1926 22.5809C22.285 22.5261 22.3652 22.4528 22.4281 22.3655L25.8886 17.4835C26.5807 16.6148 27.5126 15.4732 28.6369 15.1717C35.422 13.328 41.5786 11.5848 47.1069 9.94216C48.5729 9.50421 50.9924 8.95283 52.3163 8.49047C52.6899 8.38319 53.0087 8.13781 53.208 7.8041C53.4885 7.29292 54.0676 6.16383 54.9454 4.41683C55.4868 3.3399 55.9506 2.78852 55.1967 1.92411C54.7659 1.42442 54.2404 1.4316 53.6172 1.65416C49.7805 3.0106 46.0333 4.36274 42.3756 5.71057C40.6611 6.34237 38.9428 6.97081 37.2207 7.5959C33.4472 9.01457 29.6597 10.4026 25.8584 11.76C24.7572 12.1341 23.7817 12.8073 23.0412 13.7042C22.8524 13.937 22.7026 14.1989 22.5975 14.4796C22.25 15.4129 21.8887 16.3807 21.5134 17.383L19.3926 23.118C19.251 23.3284 19.1417 23.5587 19.0681 23.8014C19.054 23.8499 19.051 23.9009 19.0593 23.9507C19.0676 24.0005 19.0871 24.0478 19.1162 24.0891C19.1453 24.1303 19.1833 24.1645 19.2274 24.189C19.2716 24.2136 19.3207 24.2278 19.3711 24.2308Z" fill="#00C853"/>
<path d="M44.9825 18.3292C41.3224 19.3344 38.129 20.3208 34.5866 21.2972C33.9165 21.482 33.4776 21.6572 33.2699 21.8228C32.6568 22.311 32.193 23.3865 32.7803 24.0384C32.9238 24.1963 33.2455 24.2595 33.7524 24.2265C36.2594 24.0642 38.3587 23.9221 40.8644 23.7957C41.6053 23.7612 42.3678 23.6899 43.1518 23.5818C43.7031 23.5071 44.0851 23.2587 44.3005 22.8423C44.9256 21.6285 45.5521 20.4415 46.1801 19.2812C46.2034 19.2397 46.218 19.1938 46.223 19.1464C46.2279 19.099 46.2231 19.051 46.2088 19.0055C46.0183 18.3852 45.6095 18.1598 44.9825 18.3292Z" fill="#00C853"/>
<path d="M40.2624 25.0205C35.9346 26.1041 32.0495 27.1337 28.6072 28.1091C27.8462 28.3245 26.6587 28.6519 27.1512 29.634C27.1864 29.7088 27.2441 29.7706 27.3163 29.8106C27.5289 29.9089 27.7641 29.9477 27.9969 29.9226C30.672 29.8494 33.2078 29.9226 35.7364 29.5953C37.2805 29.3942 38.3335 29.2248 38.8954 29.087C39.2056 29.0094 39.4956 28.7739 39.757 28.3805C40.7046 26.9676 41.2211 26.0706 41.3063 25.6896C41.3207 25.6275 41.3236 25.5633 41.3149 25.5001C41.2345 24.8755 40.8281 24.8798 40.2624 25.0205Z" fill="#00C853"/>
<path d="M37.5314 31.3226C37.5311 31.2702 37.5104 31.2199 37.4737 31.1824C37.437 31.1449 37.3872 31.1231 37.3347 31.1216C36.6101 31.1073 35.7523 31.1379 34.7616 31.2135C34.3394 31.2451 34.0278 31.3571 33.8268 31.5337C33.7926 31.5652 33.7652 31.6033 33.7465 31.6458C33.7277 31.6883 33.7179 31.7342 33.7177 31.7807V39.4513C33.6673 39.7166 33.5623 39.9685 33.4093 40.1909C33.2562 40.4134 33.0586 40.6016 32.8289 40.7436C32.5063 40.935 31.9874 41.0308 31.2723 41.0308C28.4513 41.0164 24.8189 41.0212 20.3753 41.0451C20.2484 41.0471 20.1273 41.0987 20.0379 41.1887L14.1076 47.0974C14.1017 47.1038 14.0939 47.1083 14.0854 47.1102C14.0769 47.1121 14.068 47.1113 14.0599 47.1081C14.0518 47.1048 14.0449 47.0991 14.0401 47.0919C14.0353 47.0846 14.0328 47.076 14.033 47.0673C14.0454 45.46 14.0535 43.7848 14.0574 42.0416C14.0574 41.1686 13.585 40.9977 12.7651 41.002C10.123 41.0183 8.3042 41.0102 7.30865 40.9776C6.36574 40.946 5.72772 40.4535 5.39459 39.5001C5.37637 39.4514 5.36665 39.3999 5.36587 39.3479L5.33573 37.6248V32.8863V26.1376C5.34578 25.5963 5.26537 24.8267 5.46065 24.3873C5.72198 23.8043 6.1987 23.4941 6.88793 23.464C7.05162 23.4582 10.1757 23.4582 16.26 23.464C16.5043 23.4696 16.7476 23.4307 16.978 23.3491C17.052 23.3215 17.118 23.2761 17.1704 23.217C17.314 23.0605 17.4863 22.7432 17.6859 22.2679C18.0616 21.385 18.3834 20.4802 18.6494 19.5583C15.0596 19.5114 11.4905 19.5038 7.94187 19.5354C6.86112 19.5459 6.07951 19.6234 5.59705 19.768C3.42023 20.4285 1.82352 22.0525 1.63111 24.4074C1.59664 24.8525 1.56936 25.2919 1.555 25.7298L1.5751 26.0989V33.511L1.56793 38.393C1.432 40.3822 2.02167 41.999 3.33695 43.2435C4.35761 44.2152 5.70712 44.7664 7.11623 44.7871C7.8428 44.7871 8.89101 44.7871 10.2609 44.7871C10.2747 44.7867 10.2886 44.789 10.3015 44.7941C10.3145 44.7991 10.3263 44.8066 10.3363 44.8162C10.3463 44.8258 10.3544 44.8374 10.3599 44.8501C10.3654 44.8628 10.3684 44.8766 10.3685 44.8904L10.3886 46.4369C10.3772 48.6281 10.3738 50.8178 10.3786 53.0061C10.3786 53.8519 10.5337 54.4219 11.4369 54.4865C11.8303 54.5153 12.228 54.33 12.6358 53.9308C15.5277 51.0954 18.3995 48.228 21.2512 45.3284L21.8557 44.8502C21.908 44.809 21.9729 44.7872 22.0395 44.7885C25.1497 44.822 28.2608 44.8282 31.3729 44.8072C35.2914 44.7828 37.9335 42.033 37.5616 37.9981L37.5314 31.3226Z" fill="#00C853"/>
<path d="M53.7907 2.56885C51.4932 3.54526 49.1699 4.46567 46.8438 5.36597C45.6807 5.82115 44.5119 6.25623 43.3459 6.70136L39.838 8.00515L36.3187 9.27736C35.1412 9.68946 33.9681 10.1145 32.7863 10.5165C30.4286 11.3336 28.0622 12.129 25.6758 12.8685C27.9732 11.8907 30.2951 10.9703 32.6227 10.07C33.7843 9.61336 34.9531 9.17972 36.1191 8.73459L39.6313 7.43223L43.1507 6.16003C44.3281 5.74649 45.5012 5.3229 46.683 4.92085C49.0378 4.10382 51.4056 3.30259 53.7907 2.56885Z" fill="white"/>
<path d="M49.2891 11.592C47.9236 12.096 46.5423 12.5411 45.1566 12.9661C44.4645 13.1844 43.7667 13.3811 43.0717 13.5879L40.9782 14.1766L38.8775 14.7337C38.1739 14.9089 37.4731 15.0941 36.7667 15.2578C35.3566 15.5967 33.9408 15.914 32.5078 16.1725C33.8734 15.6685 35.2547 15.2234 36.6403 14.7983C37.3324 14.5801 38.0303 14.3834 38.7252 14.1766L40.8188 13.5879L42.9195 13.0322C43.6231 12.857 44.3238 12.6732 45.0317 12.5081C46.4418 12.1706 47.8576 11.8519 49.2891 11.592Z" fill="white"/>
<path d="M28.3066 28.9362C29.2371 28.6045 30.1733 28.3116 31.1224 28.0316C32.0716 27.7516 33.0164 27.4902 33.9684 27.2361C34.9204 26.9819 35.8753 26.7464 36.8402 26.5267C37.8051 26.3071 38.7643 26.096 39.7378 25.928C38.8074 26.2611 37.8712 26.554 36.9206 26.834C35.97 27.114 35.0266 27.3754 34.0761 27.6295C33.1255 27.8837 32.1678 28.1177 31.2043 28.3374C30.2408 28.5571 29.2802 28.7667 28.3066 28.9362Z" fill="white"/>
<path d="M34.1758 22.0123C35.0057 21.6878 35.8457 21.402 36.69 21.1292C37.5343 20.8564 38.3844 20.6037 39.2359 20.3567C40.0874 20.1097 40.9446 19.8814 41.8061 19.6689C42.6677 19.4564 43.5292 19.2539 44.4066 19.0945C43.578 19.4205 42.738 19.7062 41.8923 19.9776C41.0466 20.249 40.2066 20.5003 39.345 20.7473C38.4835 20.9942 37.6363 21.2225 36.7748 21.4336C35.9132 21.6447 35.0531 21.85 34.1758 22.0123Z" fill="white"/>
<path d="M50.8438 41.104V20.4486H55.4171V41.104H50.8438Z" fill="white"/>
<path d="M63.3246 26.5641L63.6492 28.1565C64.6227 26.7996 65.9207 26.2094 67.5433 26.2094C68.9304 26.2094 70.082 26.623 71.1144 27.5376L69.3439 30.9005C68.6677 30.4083 67.8497 30.1497 67.0135 30.1639C65.1827 30.1639 63.619 31.3442 63.619 33.5267V41.1112H59.373V26.5641H63.3246Z" fill="white"/>
<path d="M77.3116 22.6613C77.3116 25.8476 72.4727 25.8476 72.4727 22.6613C72.4727 19.4751 77.3116 19.4737 77.3116 22.6613ZM72.7685 26.4966V41.104H77.0173V26.4966H72.7685Z" fill="white"/>
<path d="M93.3329 25.4355C92.1841 24.2251 90.1739 23.6938 88.5528 23.6938C86.5166 23.6938 84.8639 24.5553 84.8639 25.9654C84.8639 27.855 86.6646 28.2082 89.3152 28.4452C93.3874 28.7984 97.2529 30.3635 97.2529 35.1436C97.2529 39.7471 93.004 41.7487 88.5485 41.7818C84.9774 41.8119 81.2598 40.4249 79.5195 37.533L82.2635 34.6712C83.8559 36.7073 86.4822 37.5918 88.5815 37.5918C91.0225 37.5918 92.7126 36.6183 92.7126 35.1508C92.7413 33.4091 91.3542 32.6121 88.5485 32.3766C84.1805 31.9631 80.2863 30.8718 80.3452 26.0027C80.3739 21.9018 84.2695 19.7178 88.5183 19.7178C91.706 19.7178 94.0953 20.4257 96.2204 22.904L93.3329 25.4355Z" fill="white"/>
<path d="M114.316 26.5268L105.375 47.6546H100.743L103.758 40.6618L97.6426 26.5268H102.423L106.053 35.7036L109.624 26.5268H114.316Z" fill="white"/>
<path d="M126.767 41.104V33.4018C126.767 31.159 125.794 30.0088 123.752 30.0088C121.775 29.9786 120.449 31.6902 120.449 33.5799V41.104H116.258V26.5268H120.095L120.238 28.3934C121.53 26.7105 123.189 26.1505 124.959 26.1793C128.235 26.1793 131.037 27.7142 131.037 33.3803V41.1112L126.767 41.104Z" fill="white"/>
<path d="M147.247 39.1857C145.506 40.8973 143.411 41.4285 141.552 41.4285C137.303 41.4285 133.584 39.0966 133.584 33.8441C133.584 28.9463 137.273 26.2023 141.522 26.2023C143.647 26.2023 145.328 26.6747 146.804 28.2125L144.444 30.8977C143.558 30.2199 142.577 30.0361 141.7 30.0361C139.575 30.0361 137.863 31.4232 137.863 33.8427C137.863 36.1746 139.633 37.5028 141.611 37.5028C142.555 37.5028 143.854 37.1194 144.561 36.4101L147.247 39.1857Z" fill="white"/>
</g>
<defs>
<clipPath id="clip0_1_1912">
<rect width="147.323" height="56" fill="white"/>
</clipPath>
</defs>
</svg>
