<svg width="94" height="72" viewBox="0 0 94 72" fill="none" xmlns="http://www.w3.org/2000/svg">
<g clip-path="url(#clip0_1_1962)">
<path fill-rule="evenodd" clip-rule="evenodd" d="M23.0478 41.3526C24.1697 43.2958 26.8456 44.405 29.0141 43.824C31.1814 43.2432 32.0329 41.1901 30.9104 39.2458C30.5204 38.5703 29.9424 37.9965 29.2629 37.5585L33.0893 29.772C34.0097 30.0454 34.987 30.0935 35.8792 29.8544C37.0456 29.5419 37.8298 28.8018 38.1319 27.8833L46.405 29.5928C46.4662 30.0177 46.618 30.4545 46.8674 30.8864C47.9893 32.8296 50.6652 33.9388 52.8337 33.3578C55.001 32.777 55.8525 30.7239 54.73 28.7796C54.3269 28.0814 53.7231 27.492 53.0156 27.049L56.7675 18.9475C57.6652 19.2007 58.6131 19.2392 59.48 19.0069C61.6473 18.4262 62.4989 16.373 61.3764 14.4288C60.2545 12.4856 57.5773 11.3767 55.41 11.9574C53.2427 12.5382 52.3912 14.5913 53.5137 16.5356C53.9168 17.2338 54.5207 17.8232 55.2281 18.2662L51.4763 26.3677C50.5786 26.1145 49.6306 26.076 48.7637 26.3083C47.5974 26.6208 46.8131 27.361 46.511 28.2794L38.238 26.5699C38.1768 26.1451 38.0249 25.7083 37.7756 25.2763C36.6537 23.3332 33.9765 22.2243 31.8093 22.805C29.642 23.3857 28.7904 25.4389 29.9129 27.3831C30.3029 28.0586 30.8816 28.6336 31.5605 29.0704L27.7335 36.8559C26.813 36.5825 25.8346 36.5347 24.9435 36.7734C22.7768 37.3552 21.9259 39.4095 23.0478 41.3526ZM35.3329 46.6884C35.7325 46.5813 36.2254 46.7854 36.4323 47.1438L42.9036 58.3523L46.3036 57.4412L35.1667 38.1516C34.9599 37.7933 35.1165 37.4151 35.5162 37.308L43.5974 35.1426C43.9982 35.0352 44.4899 35.2397 44.6968 35.598L55.8337 54.8877L59.2337 53.9766L51.0475 39.7976C50.8406 39.4393 50.9973 39.0611 51.3969 38.954L59.4781 36.7887C59.8778 36.6816 60.3707 36.8857 60.5776 37.2441L68.7638 51.4231L72.1639 50.512L58.6714 27.1423C58.4639 26.7829 58.6212 26.4058 59.0208 26.2987L67.102 24.1333C67.5016 24.0263 67.9946 24.2304 68.2014 24.5887L81.6933 47.9574L85.906 46.8286C86.3068 46.7212 86.7985 46.9257 87.0054 47.284C87.2123 47.6423 87.0568 48.0202 86.656 48.1276L29.9078 63.3332C29.5082 63.4403 29.0152 63.2362 28.8084 62.8778C28.6015 62.5195 28.7582 62.1413 29.1578 62.0342L33.3717 60.9051L26.901 49.6977C26.6942 49.3393 26.8508 48.9611 27.2505 48.854L35.3329 46.6884Z" fill="url(#paint0_linear_1_1962)"/>
</g>
<defs>
<linearGradient id="paint0_linear_1_1962" x1="36.0106" y1="17.1555" x2="47.1463" y2="58.7142" gradientUnits="userSpaceOnUse">
<stop stop-color="#00C551" stop-opacity="0.6"/>
<stop offset="1" stop-color="#00C551" stop-opacity="0.04"/>
</linearGradient>
<clipPath id="clip0_1_1962">
<rect width="64" height="64" fill="white" transform="matrix(0.965926 -0.258819 0.5 0.866025 0 16.5644)"/>
</clipPath>
</defs>
</svg>
